<svg width="50" height="50" viewBox="0 0 50 50" fill="none" xmlns="http://www.w3.org/2000/svg">
<rect width="50" height="50" rx="12" fill="#35F1CE"/>
<path d="M28.22 19.55H18.78C18.5 19.55 18.24 19.56 18 19.57C15.63 19.71 15 20.58 15 23.28V23.86C15 24.41 15.45 24.86 16 24.86H31C31.55 24.86 32 24.41 32 23.86V23.28C32 20.3 31.24 19.55 28.22 19.55Z" fill="white"/>
<path d="M16 26.36C15.45 26.36 15 26.81 15 27.36V30.27C15 33.25 15.76 34 18.78 34H28.22C31.19 34 31.97 33.28 32 30.43V27.36C32 26.81 31.55 26.36 31 26.36H16ZM19.96 31.56H18.25C17.84 31.56 17.5 31.22 17.5 30.81C17.5 30.4 17.84 30.06 18.25 30.06H19.97C20.38 30.06 20.72 30.4 20.72 30.81C20.72 31.22 20.38 31.56 19.96 31.56ZM25.55 31.56H22.11C21.7 31.56 21.36 31.22 21.36 30.81C21.36 30.4 21.7 30.06 22.11 30.06H25.55C25.96 30.06 26.3 30.4 26.3 30.81C26.3 31.22 25.97 31.56 25.55 31.56Z" fill="white"/>
<path d="M35 26.33V21.09C35 17.96 33.21 16.6 30.51 16.6H21.58C20.82 16.6 20.14 16.71 19.54 16.94C19.07 17.11 18.65 17.36 18.31 17.69C18.13 17.86 18.27 18.14 18.53 18.14H29.4C31.65 18.14 33.47 19.96 33.47 22.21V29.38C33.47 29.63 33.74 29.77 33.92 29.59C34.61 28.86 35 27.79 35 26.33Z" fill="white"/>
</svg>