<svg width="119" height="38" viewBox="0 0 119 38" fill="none" xmlns="http://www.w3.org/2000/svg">
<path d="M40 15.7807C40 24.4962 31.0457 22.8821 20 22.8821C8.9543 22.8821 0 24.4962 0 15.7807C0 7.06528 8.9543 0 20 0C31.0457 0 40 7.06528 40 15.7807Z" fill="#35F1CE"/>
<rect x="2" y="26" width="36" height="12" rx="6" fill="#35F1CE"/>
<path d="M50.36 28V14H52.92V19.82H59.2V14H61.76V28H59.2V21.9H52.92V28H50.36ZM65.9511 16.54C65.4844 16.54 65.0978 16.4 64.7911 16.12C64.4978 15.84 64.3511 15.4867 64.3511 15.06C64.3511 14.6333 64.4978 14.2867 64.7911 14.02C65.0978 13.74 65.4844 13.6 65.9511 13.6C66.4178 13.6 66.7978 13.74 67.0911 14.02C67.3978 14.2867 67.5511 14.6333 67.5511 15.06C67.5511 15.4867 67.3978 15.84 67.0911 16.12C66.7978 16.4 66.4178 16.54 65.9511 16.54ZM64.6711 28V18.08H67.2311V28H64.6711ZM70.5131 28V20.22H69.1531V18.08H70.5131V16.92C70.5131 15.72 70.8131 14.8667 71.4131 14.36C72.0265 13.8533 72.8531 13.6 73.8931 13.6H74.9931V15.78H74.2931C73.8531 15.78 73.5398 15.8667 73.3531 16.04C73.1665 16.2133 73.0731 16.5067 73.0731 16.92V18.08H75.2131V20.22H73.0731V28H70.5131ZM80.42 28.24C79.5667 28.24 78.8667 28.1067 78.32 27.84C77.7733 27.56 77.3667 27.1933 77.1 26.74C76.8333 26.2867 76.7 25.7867 76.7 25.24C76.7 24.32 77.06 23.5733 77.78 23C78.5 22.4267 79.58 22.14 81.02 22.14H83.54V21.9C83.54 21.22 83.3467 20.72 82.96 20.4C82.5733 20.08 82.0933 19.92 81.52 19.92C81 19.92 80.5467 20.0467 80.16 20.3C79.7733 20.54 79.5333 20.9 79.44 21.38H76.94C77.0067 20.66 77.2467 20.0333 77.66 19.5C78.0867 18.9667 78.6333 18.56 79.3 18.28C79.9667 17.9867 80.7133 17.84 81.54 17.84C82.9533 17.84 84.0667 18.1933 84.88 18.9C85.6933 19.6067 86.1 20.6067 86.1 21.9V28H83.92L83.68 26.4C83.3867 26.9333 82.9733 27.3733 82.44 27.72C81.92 28.0667 81.2467 28.24 80.42 28.24ZM81 26.24C81.7333 26.24 82.3 26 82.7 25.52C83.1133 25.04 83.3733 24.4467 83.48 23.74H81.3C80.62 23.74 80.1333 23.8667 79.84 24.12C79.5467 24.36 79.4 24.66 79.4 25.02C79.4 25.4067 79.5467 25.7067 79.84 25.92C80.1333 26.1333 80.52 26.24 81 26.24ZM93.253 28.24C92.3196 28.24 91.4863 28.0133 90.753 27.56C90.0196 27.1067 89.4396 26.4867 89.013 25.7C88.5863 24.9133 88.373 24.02 88.373 23.02C88.373 22.02 88.5863 21.1333 89.013 20.36C89.4396 19.5733 90.0196 18.96 90.753 18.52C91.4863 18.0667 92.3196 17.84 93.253 17.84C93.9996 17.84 94.653 17.98 95.213 18.26C95.773 18.54 96.2263 18.9333 96.573 19.44V13.6H99.133V28H96.853L96.573 26.58C96.253 27.02 95.8263 27.4067 95.293 27.74C94.773 28.0733 94.093 28.24 93.253 28.24ZM93.793 26C94.6196 26 95.293 25.7267 95.813 25.18C96.3463 24.62 96.613 23.9067 96.613 23.04C96.613 22.1733 96.3463 21.4667 95.813 20.92C95.293 20.36 94.6196 20.08 93.793 20.08C92.9796 20.08 92.3063 20.3533 91.773 20.9C91.2396 21.4467 90.973 22.1533 90.973 23.02C90.973 23.8867 91.2396 24.6 91.773 25.16C92.3063 25.72 92.9796 26 93.793 26ZM101.89 28V13.6H104.45V19.6C104.783 19.0533 105.23 18.6267 105.79 18.32C106.363 18 107.017 17.84 107.75 17.84C108.977 17.84 109.923 18.2267 110.59 19C111.27 19.7733 111.61 20.9067 111.61 22.4V28H109.07V22.64C109.07 21.7867 108.897 21.1333 108.55 20.68C108.217 20.2267 107.683 20 106.95 20C106.23 20 105.63 20.2533 105.15 20.76C104.683 21.2667 104.45 21.9733 104.45 22.88V28H101.89ZM115.588 16.54C115.121 16.54 114.734 16.4 114.428 16.12C114.134 15.84 113.988 15.4867 113.988 15.06C113.988 14.6333 114.134 14.2867 114.428 14.02C114.734 13.74 115.121 13.6 115.588 13.6C116.054 13.6 116.434 13.74 116.728 14.02C117.034 14.2867 117.188 14.6333 117.188 15.06C117.188 15.4867 117.034 15.84 116.728 16.12C116.434 16.4 116.054 16.54 115.588 16.54ZM114.308 28V18.08H116.868V28H114.308Z" fill="#35F1CE"/>
</svg>