<svg width="204" height="49" viewBox="0 0 204 49" fill="none" xmlns="http://www.w3.org/2000/svg">
<rect x="0.5" y="0.5" width="203" height="48" fill="#1E1E1E" stroke="white"/>
<mask id="path-2-outside-1_7_49" maskUnits="userSpaceOnUse" x="12" y="11" width="90" height="27" fill="black">
<rect fill="white" x="12" y="11" width="90" height="27"/>
<path d="M20.8636 12.7273L25.6364 29.1364H25.8182L30.5909 12.7273H37.7273L30.0455 36H21.4091L13.7273 12.7273H20.8636ZM42.2017 36H35.3835L43.0653 12.7273H51.7017L59.3835 36H52.5653L47.4744 19.1364H47.2926L42.2017 36ZM40.929 26.8182H53.7472V31.5455H40.929V26.8182ZM73.2642 20C73.2036 19.2424 72.9195 18.6515 72.4119 18.2273C71.9119 17.803 71.1506 17.5909 70.1278 17.5909C69.4763 17.5909 68.9422 17.6705 68.5256 17.8295C68.1165 17.9811 67.8134 18.1894 67.6165 18.4545C67.4195 18.7197 67.3172 19.0227 67.3097 19.3636C67.2945 19.6439 67.3438 19.8977 67.4574 20.125C67.5786 20.3447 67.768 20.5455 68.0256 20.7273C68.2831 20.9015 68.6127 21.0606 69.0142 21.2045C69.4157 21.3485 69.893 21.4773 70.446 21.5909L72.3551 22C73.643 22.2727 74.7453 22.6326 75.6619 23.0795C76.5786 23.5265 77.3286 24.053 77.9119 24.6591C78.4953 25.2576 78.9233 25.9318 79.196 26.6818C79.4763 27.4318 79.6203 28.25 79.6278 29.1364C79.6203 30.6667 79.2377 31.9621 78.4801 33.0227C77.7225 34.0833 76.6392 34.8902 75.2301 35.4432C73.8286 35.9962 72.143 36.2727 70.1733 36.2727C68.1506 36.2727 66.3854 35.9735 64.8778 35.375C63.3778 34.7765 62.2112 33.8561 61.3778 32.6136C60.5521 31.3636 60.1354 29.7652 60.1278 27.8182H66.1278C66.1657 28.5303 66.3438 29.1288 66.6619 29.6136C66.9801 30.0985 67.4271 30.4659 68.0028 30.7159C68.5862 30.9659 69.2794 31.0909 70.0824 31.0909C70.7566 31.0909 71.321 31.0076 71.7756 30.8409C72.2301 30.6742 72.5748 30.4432 72.8097 30.1477C73.0445 29.8523 73.1657 29.5152 73.1733 29.1364C73.1657 28.7803 73.0483 28.4697 72.821 28.2045C72.6013 27.9318 72.2377 27.6894 71.7301 27.4773C71.2225 27.2576 70.5369 27.053 69.6733 26.8636L67.3551 26.3636C65.2945 25.9167 63.6695 25.1705 62.4801 24.125C61.2983 23.072 60.7112 21.6364 60.7188 19.8182C60.7112 18.3409 61.1051 17.0492 61.9006 15.9432C62.7036 14.8295 63.8134 13.9621 65.2301 13.3409C66.6544 12.7197 68.2869 12.4091 70.1278 12.4091C72.0066 12.4091 73.6316 12.7235 75.0028 13.3523C76.3741 13.9811 77.4309 14.8674 78.1733 16.0114C78.9233 17.1477 79.3021 18.4773 79.3097 20H73.2642ZM82.0312 36V12.7273H92.0767C93.804 12.7273 95.3153 13.0682 96.6108 13.75C97.9063 14.4318 98.9138 15.3902 99.6335 16.625C100.353 17.8598 100.713 19.303 100.713 20.9545C100.713 22.6212 100.342 24.0644 99.5994 25.2841C98.8646 26.5038 97.8305 27.4432 96.4972 28.1023C95.1714 28.7614 93.6222 29.0909 91.8494 29.0909H85.8494V24.1818H90.5767C91.3191 24.1818 91.9517 24.053 92.4744 23.7955C93.0047 23.5303 93.41 23.1553 93.6903 22.6705C93.9782 22.1856 94.1222 21.6136 94.1222 20.9545C94.1222 20.2879 93.9782 19.7197 93.6903 19.25C93.41 18.7727 93.0047 18.4091 92.4744 18.1591C91.9517 17.9015 91.3191 17.7727 90.5767 17.7727H88.3494V36H82.0312Z"/>
</mask>
<path d="M20.8636 12.7273L25.6364 29.1364H25.8182L30.5909 12.7273H37.7273L30.0455 36H21.4091L13.7273 12.7273H20.8636ZM42.2017 36H35.3835L43.0653 12.7273H51.7017L59.3835 36H52.5653L47.4744 19.1364H47.2926L42.2017 36ZM40.929 26.8182H53.7472V31.5455H40.929V26.8182ZM73.2642 20C73.2036 19.2424 72.9195 18.6515 72.4119 18.2273C71.9119 17.803 71.1506 17.5909 70.1278 17.5909C69.4763 17.5909 68.9422 17.6705 68.5256 17.8295C68.1165 17.9811 67.8134 18.1894 67.6165 18.4545C67.4195 18.7197 67.3172 19.0227 67.3097 19.3636C67.2945 19.6439 67.3438 19.8977 67.4574 20.125C67.5786 20.3447 67.768 20.5455 68.0256 20.7273C68.2831 20.9015 68.6127 21.0606 69.0142 21.2045C69.4157 21.3485 69.893 21.4773 70.446 21.5909L72.3551 22C73.643 22.2727 74.7453 22.6326 75.6619 23.0795C76.5786 23.5265 77.3286 24.053 77.9119 24.6591C78.4953 25.2576 78.9233 25.9318 79.196 26.6818C79.4763 27.4318 79.6203 28.25 79.6278 29.1364C79.6203 30.6667 79.2377 31.9621 78.4801 33.0227C77.7225 34.0833 76.6392 34.8902 75.2301 35.4432C73.8286 35.9962 72.143 36.2727 70.1733 36.2727C68.1506 36.2727 66.3854 35.9735 64.8778 35.375C63.3778 34.7765 62.2112 33.8561 61.3778 32.6136C60.5521 31.3636 60.1354 29.7652 60.1278 27.8182H66.1278C66.1657 28.5303 66.3438 29.1288 66.6619 29.6136C66.9801 30.0985 67.4271 30.4659 68.0028 30.7159C68.5862 30.9659 69.2794 31.0909 70.0824 31.0909C70.7566 31.0909 71.321 31.0076 71.7756 30.8409C72.2301 30.6742 72.5748 30.4432 72.8097 30.1477C73.0445 29.8523 73.1657 29.5152 73.1733 29.1364C73.1657 28.7803 73.0483 28.4697 72.821 28.2045C72.6013 27.9318 72.2377 27.6894 71.7301 27.4773C71.2225 27.2576 70.5369 27.053 69.6733 26.8636L67.3551 26.3636C65.2945 25.9167 63.6695 25.1705 62.4801 24.125C61.2983 23.072 60.7112 21.6364 60.7188 19.8182C60.7112 18.3409 61.1051 17.0492 61.9006 15.9432C62.7036 14.8295 63.8134 13.9621 65.2301 13.3409C66.6544 12.7197 68.2869 12.4091 70.1278 12.4091C72.0066 12.4091 73.6316 12.7235 75.0028 13.3523C76.3741 13.9811 77.4309 14.8674 78.1733 16.0114C78.9233 17.1477 79.3021 18.4773 79.3097 20H73.2642ZM82.0312 36V12.7273H92.0767C93.804 12.7273 95.3153 13.0682 96.6108 13.75C97.9063 14.4318 98.9138 15.3902 99.6335 16.625C100.353 17.8598 100.713 19.303 100.713 20.9545C100.713 22.6212 100.342 24.0644 99.5994 25.2841C98.8646 26.5038 97.8305 27.4432 96.4972 28.1023C95.1714 28.7614 93.6222 29.0909 91.8494 29.0909H85.8494V24.1818H90.5767C91.3191 24.1818 91.9517 24.053 92.4744 23.7955C93.0047 23.5303 93.41 23.1553 93.6903 22.6705C93.9782 22.1856 94.1222 21.6136 94.1222 20.9545C94.1222 20.2879 93.9782 19.7197 93.6903 19.25C93.41 18.7727 93.0047 18.4091 92.4744 18.1591C91.9517 17.9015 91.3191 17.7727 90.5767 17.7727H88.3494V36H82.0312Z" fill="#32174D"/>
<path d="M20.8636 12.7273L21.8238 12.448L21.6142 11.7273H20.8636V12.7273ZM25.6364 29.1364L24.6762 29.4156L24.8858 30.1364H25.6364V29.1364ZM25.8182 29.1364V30.1364H26.5688L26.7784 29.4156L25.8182 29.1364ZM30.5909 12.7273V11.7273H29.8403L29.6307 12.448L30.5909 12.7273ZM37.7273 12.7273L38.6769 13.0407L39.1104 11.7273H37.7273V12.7273ZM30.0455 36V37H30.7684L30.9951 36.3134L30.0455 36ZM21.4091 36L20.4595 36.3134L20.6861 37H21.4091V36ZM13.7273 12.7273V11.7273H12.3441L12.7777 13.0407L13.7273 12.7273ZM19.9034 13.0066L24.6762 29.4156L26.5966 28.8571L21.8238 12.448L19.9034 13.0066ZM25.6364 30.1364H25.8182V28.1364H25.6364V30.1364ZM26.7784 29.4156L31.5511 13.0066L29.6307 12.448L24.858 28.8571L26.7784 29.4156ZM30.5909 13.7273H37.7273V11.7273H30.5909V13.7273ZM36.7777 12.4138L29.0958 35.6866L30.9951 36.3134L38.6769 13.0407L36.7777 12.4138ZM30.0455 35H21.4091V37H30.0455V35ZM22.3587 35.6866L14.6769 12.4138L12.7777 13.0407L20.4595 36.3134L22.3587 35.6866ZM13.7273 13.7273H20.8636V11.7273H13.7273V13.7273ZM42.2017 36V37H42.9444L43.159 36.289L42.2017 36ZM35.3835 36L34.4339 35.6866L34.0004 37H35.3835V36ZM43.0653 12.7273V11.7273H42.3424L42.1157 12.4138L43.0653 12.7273ZM51.7017 12.7273L52.6513 12.4138L52.4247 11.7273H51.7017V12.7273ZM59.3835 36V37H60.7667L60.3331 35.6866L59.3835 36ZM52.5653 36L51.608 36.289L51.8227 37H52.5653V36ZM47.4744 19.1364L48.4318 18.8474L48.2171 18.1364H47.4744V19.1364ZM47.2926 19.1364V18.1364H46.5499L46.3353 18.8474L47.2926 19.1364ZM40.929 26.8182V25.8182H39.929V26.8182H40.929ZM53.7472 26.8182H54.7472V25.8182H53.7472V26.8182ZM53.7472 31.5455V32.5455H54.7472V31.5455H53.7472ZM40.929 31.5455H39.929V32.5455H40.929V31.5455ZM42.2017 35H35.3835V37H42.2017V35ZM36.3331 36.3134L44.0149 13.0407L42.1157 12.4138L34.4339 35.6866L36.3331 36.3134ZM43.0653 13.7273H51.7017V11.7273H43.0653V13.7273ZM50.7521 13.0407L58.4339 36.3134L60.3331 35.6866L52.6513 12.4138L50.7521 13.0407ZM59.3835 35H52.5653V37H59.3835V35ZM53.5227 35.711L48.4318 18.8474L46.5171 19.4254L51.608 36.289L53.5227 35.711ZM47.4744 18.1364H47.2926V20.1364H47.4744V18.1364ZM46.3353 18.8474L41.2444 35.711L43.159 36.289L48.2499 19.4254L46.3353 18.8474ZM40.929 27.8182H53.7472V25.8182H40.929V27.8182ZM52.7472 26.8182V31.5455H54.7472V26.8182H52.7472ZM53.7472 30.5455H40.929V32.5455H53.7472V30.5455ZM41.929 31.5455V26.8182H39.929V31.5455H41.929ZM73.2642 20L72.2674 20.0797L72.341 21H73.2642V20ZM72.4119 18.2273L71.7649 18.9898L71.7706 18.9946L72.4119 18.2273ZM68.5256 17.8295L68.8729 18.7673L68.8823 18.7638L68.5256 17.8295ZM67.6165 18.4545L66.8137 17.8582L66.8137 17.8582L67.6165 18.4545ZM67.3097 19.3636L68.3082 19.4176L68.3091 19.4017L68.3094 19.3859L67.3097 19.3636ZM67.4574 20.125L66.563 20.5722L66.572 20.5903L66.5818 20.6081L67.4574 20.125ZM68.0256 20.7273L67.4489 21.5442L67.457 21.55L67.4653 21.5556L68.0256 20.7273ZM70.446 21.5909L70.6556 20.6131L70.6473 20.6114L70.446 21.5909ZM72.3551 22L72.1456 22.9778L72.1479 22.9783L72.3551 22ZM75.6619 23.0795L75.2237 23.9784L75.6619 23.0795ZM77.9119 24.6591L77.1914 25.3526L77.1958 25.3571L77.9119 24.6591ZM79.196 26.6818L78.2562 27.0236L78.2593 27.0319L79.196 26.6818ZM79.6278 29.1364L80.6279 29.1413L80.6278 29.1278L79.6278 29.1364ZM78.4801 33.0227L79.2938 33.604L78.4801 33.0227ZM75.2301 35.4432L74.8648 34.5123L74.8631 34.513L75.2301 35.4432ZM64.8778 35.375L64.5073 36.3038L64.5089 36.3044L64.8778 35.375ZM61.3778 32.6136L60.5434 33.1648L60.5474 33.1707L61.3778 32.6136ZM60.1278 27.8182V26.8182H59.1239L59.1278 27.8221L60.1278 27.8182ZM66.1278 27.8182L67.1264 27.7651L67.0761 26.8182H66.1278V27.8182ZM66.6619 29.6136L65.8259 30.1623L66.6619 29.6136ZM68.0028 30.7159L67.6046 31.6332L67.6089 31.6351L68.0028 30.7159ZM71.7756 30.8409L72.1198 31.7798L71.7756 30.8409ZM72.8097 30.1477L73.5925 30.77V30.77L72.8097 30.1477ZM73.1733 29.1364L74.1731 29.1564L74.1735 29.1357L74.1731 29.1151L73.1733 29.1364ZM72.821 28.2045L72.0423 28.8319L72.0518 28.8438L72.0618 28.8553L72.821 28.2045ZM71.7301 27.4773L71.3329 28.3951L71.3445 28.3999L71.7301 27.4773ZM69.6733 26.8636L69.8875 25.8868L69.8841 25.8861L69.6733 26.8636ZM67.3551 26.3636L67.1431 27.3409L67.1443 27.3412L67.3551 26.3636ZM62.4801 24.125L61.8148 24.8716L61.8199 24.8761L62.4801 24.125ZM60.7188 19.8182L61.7188 19.8223L61.7187 19.8131L60.7188 19.8182ZM61.9006 15.9432L61.0895 15.3583L61.0887 15.3593L61.9006 15.9432ZM65.2301 13.3409L64.8303 12.4243L64.8285 12.4251L65.2301 13.3409ZM75.0028 13.3523L74.586 14.2613L75.0028 13.3523ZM78.1733 16.0114L77.3344 16.5558L77.3387 16.5622L78.1733 16.0114ZM79.3097 20V21H80.3146L80.3096 19.995L79.3097 20ZM74.261 19.9203C74.1825 18.9384 73.7979 18.0824 73.0532 17.46L71.7706 18.9946C72.0411 19.2206 72.2247 19.5464 72.2674 20.0797L74.261 19.9203ZM73.0589 17.4648C72.301 16.8217 71.2615 16.5909 70.1278 16.5909V18.5909C71.0396 18.5909 71.5228 18.7844 71.765 18.9898L73.0589 17.4648ZM70.1278 16.5909C69.4056 16.5909 68.7391 16.6776 68.1689 16.8953L68.8823 18.7638C69.1454 18.6633 69.5471 18.5909 70.1278 18.5909V16.5909ZM68.1783 16.8918C67.6446 17.0894 67.1579 17.3949 66.8137 17.8582L68.4192 19.0509C68.469 18.9838 68.5883 18.8727 68.8729 18.7673L68.1783 16.8918ZM66.8137 17.8582C66.489 18.2954 66.3219 18.8005 66.3099 19.3414L68.3094 19.3859C68.3125 19.245 68.35 19.144 68.4192 19.0509L66.8137 17.8582ZM66.3111 19.3097C66.2876 19.7446 66.3638 20.1739 66.563 20.5722L68.3518 19.6778C68.3237 19.6216 68.3014 19.5432 68.3082 19.4176L66.3111 19.3097ZM66.5818 20.6081C66.7924 20.9898 67.0986 21.297 67.4489 21.5442L68.6023 19.9103C68.4374 19.794 68.3648 19.6996 68.333 19.6419L66.5818 20.6081ZM67.4653 21.5556C67.8123 21.7903 68.2234 21.9834 68.6767 22.1459L69.3517 20.2632C69.002 20.1378 68.754 20.0127 68.5859 19.899L67.4653 21.5556ZM68.6767 22.1459C69.1343 22.3099 69.6593 22.4501 70.2447 22.5704L70.6473 20.6114C70.1267 20.5044 69.6972 20.3871 69.3517 20.2632L68.6767 22.1459ZM70.2365 22.5687L72.1456 22.9778L72.5646 21.0222L70.6556 20.6131L70.2365 22.5687ZM72.1479 22.9783C73.3777 23.2387 74.3982 23.5759 75.2237 23.9784L76.1002 22.1807C75.0924 21.6893 73.9083 21.3067 72.5623 21.0217L72.1479 22.9783ZM75.2237 23.9784C76.0566 24.3846 76.7046 24.8468 77.1914 25.3526L78.6324 23.9656C77.9526 23.2593 77.1006 22.6685 76.1002 22.1807L75.2237 23.9784ZM77.1958 25.3571C77.685 25.8589 78.0342 26.4131 78.2562 27.0236L80.1358 26.3401C79.8123 25.4505 79.3056 24.6562 78.628 23.9611L77.1958 25.3571ZM78.2593 27.0319C78.4946 27.6615 78.6212 28.3628 78.6279 29.1449L80.6278 29.1278C80.6193 28.1372 80.458 27.2021 80.1327 26.3317L78.2593 27.0319ZM78.6279 29.1314C78.6211 30.492 78.2839 31.5769 77.6664 32.4415L79.2938 33.604C80.1914 32.3473 80.6194 30.8413 80.6278 29.1413L78.6279 29.1314ZM77.6664 32.4415C77.0385 33.3205 76.1234 34.0183 74.8648 34.5123L75.5955 36.3741C77.155 35.762 78.4066 34.8462 79.2938 33.604L77.6664 32.4415ZM74.8631 34.513C73.6083 35.0081 72.054 35.2727 70.1733 35.2727V37.2727C72.232 37.2727 74.0489 36.9843 75.5972 36.3734L74.8631 34.513ZM70.1733 35.2727C68.2468 35.2727 66.6119 34.9875 65.2468 34.4456L64.5089 36.3044C66.1589 36.9595 68.0543 37.2727 70.1733 37.2727V35.2727ZM65.2484 34.4462C63.9201 33.9162 62.9203 33.1181 62.2083 32.0566L60.5474 33.1707C61.502 34.594 62.8356 35.6368 64.5073 36.3038L65.2484 34.4462ZM62.2122 32.0624C61.5216 31.017 61.1349 29.6242 61.1278 27.8143L59.1278 27.8221C59.136 29.9061 59.5826 31.7102 60.5435 33.1648L62.2122 32.0624ZM60.1278 28.8182H66.1278V26.8182H60.1278V28.8182ZM65.1293 27.8713C65.1744 28.7197 65.3907 29.4991 65.8259 30.1623L67.498 29.065C67.2968 28.7585 67.1571 28.3409 67.1264 27.7651L65.1293 27.8713ZM65.8259 30.1623C66.2598 30.8235 66.8655 31.3122 67.6046 31.6332L68.4011 29.7986C67.9887 29.6196 67.7004 29.3735 67.498 29.065L65.8259 30.1623ZM67.6089 31.6351C68.345 31.9505 69.1786 32.0909 70.0824 32.0909V30.0909C69.3802 30.0909 68.8273 29.9813 68.3968 29.7968L67.6089 31.6351ZM70.0824 32.0909C70.8314 32.0909 71.521 31.9993 72.1198 31.7798L71.4313 29.902C71.121 30.0158 70.6819 30.0909 70.0824 30.0909V32.0909ZM72.1198 31.7798C72.6989 31.5675 73.2152 31.2446 73.5925 30.77L72.0268 29.5255C71.9344 29.6417 71.7614 29.781 71.4313 29.902L72.1198 31.7798ZM73.5925 30.77C73.9643 30.3023 74.1612 29.7533 74.1731 29.1564L72.1735 29.1164C72.1703 29.277 72.1248 29.4023 72.0268 29.5255L73.5925 30.77ZM74.1731 29.1151C74.1607 28.5327 73.9614 27.9984 73.5803 27.5538L72.0618 28.8553C72.1352 28.941 72.1708 29.0279 72.1735 29.1576L74.1731 29.1151ZM73.5998 27.5772C73.2325 27.1213 72.6976 26.7978 72.1157 26.5546L71.3445 28.3999C71.7778 28.581 71.9701 28.7423 72.0423 28.8319L73.5998 27.5772ZM72.1273 26.5595C71.5366 26.3039 70.7814 26.0829 69.8875 25.8868L69.4591 27.8404C70.2924 28.0232 70.9085 28.2113 71.3329 28.395L72.1273 26.5595ZM69.8841 25.8861L67.566 25.3861L67.1443 27.3412L69.4625 27.8412L69.8841 25.8861ZM67.5671 25.3864C65.6196 24.9639 64.1665 24.276 63.1403 23.3739L61.8199 24.8761C63.1725 26.065 64.9694 26.8694 67.1431 27.3409L67.5671 25.3864ZM63.1454 23.3784C62.2105 22.5453 61.7122 21.401 61.7187 19.8223L59.7188 19.814C59.7102 21.8717 60.3861 23.5986 61.8149 24.8716L63.1454 23.3784ZM61.7187 19.8131C61.7121 18.5282 62.0509 17.4469 62.7124 16.527L61.0887 15.3593C60.1594 16.6516 59.7102 18.1536 59.7188 19.8233L61.7187 19.8131ZM62.7117 16.5281C63.3975 15.577 64.3575 14.8155 65.6317 14.2567L64.8285 12.4251C63.2694 13.1088 62.0097 14.0821 61.0895 15.3583L62.7117 16.5281ZM65.6299 14.2575C66.907 13.7005 68.3995 13.4091 70.1278 13.4091V11.4091C68.1744 11.4091 66.4018 11.7389 64.8303 12.4243L65.6299 14.2575ZM70.1278 13.4091C71.8971 13.4091 73.3736 13.7053 74.586 14.2613L75.4197 12.4433C73.8897 11.7417 72.1162 11.4091 70.1278 11.4091V13.4091ZM74.586 14.2613C75.8038 14.8197 76.7061 15.5875 77.3345 16.5558L79.0121 15.467C78.1557 14.1473 76.9443 13.1424 75.4197 12.4433L74.586 14.2613ZM77.3387 16.5622C77.9694 17.5178 78.3029 18.6526 78.3097 20.005L80.3096 19.995C80.3012 18.3019 79.8772 16.7777 79.0079 15.4605L77.3387 16.5622ZM79.3097 19H73.2642V21H79.3097V19ZM82.0312 36H81.0312V37H82.0312V36ZM82.0312 12.7273V11.7273H81.0312V12.7273H82.0312ZM96.6108 13.75L96.1451 14.6349L96.6108 13.75ZM99.6335 16.625L100.497 16.1215L99.6335 16.625ZM99.5994 25.2841L98.7452 24.7641L98.7429 24.768L99.5994 25.2841ZM96.4972 28.1023L96.054 27.2058L96.052 27.2068L96.4972 28.1023ZM85.8494 29.0909H84.8494V30.0909H85.8494V29.0909ZM85.8494 24.1818V23.1818H84.8494V24.1818H85.8494ZM92.4744 23.7955L92.9164 24.6925L92.9216 24.6899L92.4744 23.7955ZM93.6903 22.6705L92.8304 22.1599L92.8246 22.17L93.6903 22.6705ZM93.6903 19.25L92.8281 19.7564L92.8328 19.7645L92.8377 19.7726L93.6903 19.25ZM92.4744 18.1591L92.0324 19.0561L92.0402 19.0599L92.048 19.0636L92.4744 18.1591ZM88.3494 17.7727V16.7727H87.3494V17.7727H88.3494ZM88.3494 36V37H89.3494V36H88.3494ZM83.0312 36V12.7273H81.0312V36H83.0312ZM82.0312 13.7273H92.0767V11.7273H82.0312V13.7273ZM92.0767 13.7273C93.6708 13.7273 95.017 14.0412 96.1451 14.6349L97.0765 12.8651C95.6137 12.0952 93.9371 11.7273 92.0767 11.7273V13.7273ZM96.1451 14.6349C97.2789 15.2317 98.1466 16.0597 98.7696 17.1285L100.497 16.1215C99.681 14.7206 98.5336 13.632 97.0765 12.8651L96.1451 14.6349ZM98.7696 17.1285C99.3871 18.1881 99.7131 19.4521 99.7131 20.9545H101.713C101.713 19.154 101.319 17.5316 100.497 16.1215L98.7696 17.1285ZM99.7131 20.9545C99.7131 22.4689 99.3773 23.7257 98.7452 24.7641L100.454 25.804C101.306 24.4031 101.713 22.7735 101.713 20.9545H99.7131ZM98.7429 24.768C98.1112 25.8165 97.2241 26.6274 96.054 27.2058L96.9403 28.9987C98.4369 28.2589 99.618 27.191 100.456 25.8001L98.7429 24.768ZM96.052 27.2068C94.8893 27.7849 93.4979 28.0909 91.8494 28.0909V30.0909C93.7465 30.0909 95.4535 29.7379 96.9423 28.9977L96.052 27.2068ZM91.8494 28.0909H85.8494V30.0909H91.8494V28.0909ZM86.8494 29.0909V24.1818H84.8494V29.0909H86.8494ZM85.8494 25.1818H90.5767V23.1818H85.8494V25.1818ZM90.5767 25.1818C91.4317 25.1818 92.2238 25.0338 92.9164 24.6925L92.0324 22.8984C91.6796 23.0723 91.2066 23.1818 90.5767 23.1818V25.1818ZM92.9216 24.6899C93.6162 24.3426 94.172 23.8354 94.5561 23.171L92.8246 22.17C92.6481 22.4752 92.3933 22.718 92.0272 22.901L92.9216 24.6899ZM94.5502 23.181C94.9443 22.5172 95.1222 21.7626 95.1222 20.9545H93.1222C93.1222 21.4646 93.0121 21.854 92.8305 22.1599L94.5502 23.181ZM95.1222 20.9545C95.1222 20.1423 94.9457 19.3846 94.5429 18.7274L92.8377 19.7726C93.0107 20.0548 93.1222 20.4334 93.1222 20.9545H95.1222ZM94.5526 18.7436C94.1642 18.0822 93.6018 17.585 92.9008 17.2546L92.048 19.0636C92.4077 19.2332 92.6559 19.4632 92.8281 19.7564L94.5526 18.7436ZM92.9164 17.2621C92.2238 16.9208 91.4317 16.7727 90.5767 16.7727V18.7727C91.2066 18.7727 91.6796 18.8822 92.0324 19.0561L92.9164 17.2621ZM90.5767 16.7727H88.3494V18.7727H90.5767V16.7727ZM87.3494 17.7727V36H89.3494V17.7727H87.3494ZM88.3494 35H82.0312V37H88.3494V35Z" fill="white" mask="url(#path-2-outside-1_7_49)"/>
<path d="M118.459 15.3281H116.592C116.558 15.0866 116.489 14.8722 116.384 14.6847C116.278 14.4943 116.143 14.3324 115.979 14.1989C115.814 14.0653 115.624 13.9631 115.408 13.892C115.195 13.821 114.963 13.7855 114.713 13.7855C114.261 13.7855 113.868 13.8977 113.533 14.1222C113.197 14.3437 112.938 14.6676 112.753 15.0938C112.568 15.517 112.476 16.0312 112.476 16.6364C112.476 17.2585 112.568 17.7812 112.753 18.2045C112.94 18.6278 113.202 18.9474 113.537 19.1634C113.872 19.3793 114.26 19.4872 114.7 19.4872C114.947 19.4872 115.176 19.4545 115.386 19.3892C115.599 19.3239 115.788 19.2287 115.953 19.1037C116.118 18.9759 116.254 18.821 116.362 18.6392C116.473 18.4574 116.55 18.25 116.592 18.017L118.459 18.0256C118.411 18.4261 118.29 18.8125 118.097 19.1847C117.906 19.554 117.649 19.8849 117.325 20.1776C117.004 20.4673 116.621 20.6974 116.175 20.8679C115.732 21.0355 115.23 21.1193 114.67 21.1193C113.892 21.1193 113.196 20.9432 112.582 20.5909C111.972 20.2386 111.489 19.7287 111.134 19.0611C110.781 18.3935 110.605 17.5852 110.605 16.6364C110.605 15.6847 110.784 14.875 111.142 14.2074C111.5 13.5398 111.986 13.0312 112.599 12.6818C113.213 12.3295 113.903 12.1534 114.67 12.1534C115.176 12.1534 115.645 12.2244 116.077 12.3665C116.511 12.5085 116.896 12.7159 117.232 12.9886C117.567 13.2585 117.839 13.5895 118.05 13.9815C118.263 14.3736 118.399 14.8224 118.459 15.3281ZM119.782 21V12.2727H121.627V15.8736H125.373V12.2727H127.214V21H125.373V17.3949H121.627V21H119.782ZM130.239 21H128.262L131.275 12.2727H133.653L136.661 21H134.684L132.498 14.267H132.43L130.239 21ZM130.116 17.5696H134.786V19.0099H130.116V17.5696ZM137.712 12.2727H139.987L142.391 18.1364H142.493L144.896 12.2727H147.172V21H145.382V15.3196H145.31L143.051 20.9574H141.832L139.574 15.2983H139.501V21H137.712V12.2727ZM148.692 21V12.2727H152.186C152.828 12.2727 153.364 12.3679 153.793 12.5582C154.222 12.7486 154.544 13.0128 154.76 13.3509C154.976 13.6861 155.084 14.0724 155.084 14.5099C155.084 14.8509 155.016 15.1506 154.88 15.4091C154.743 15.6648 154.556 15.875 154.317 16.0398C154.081 16.2017 153.811 16.3168 153.507 16.3849V16.4702C153.84 16.4844 154.151 16.5781 154.441 16.7514C154.733 16.9247 154.971 17.1676 155.152 17.4801C155.334 17.7898 155.425 18.1591 155.425 18.5881C155.425 19.0511 155.31 19.4645 155.08 19.8281C154.853 20.1889 154.516 20.4744 154.07 20.6847C153.624 20.8949 153.074 21 152.421 21H148.692ZM150.537 19.4915H152.042C152.556 19.4915 152.931 19.3935 153.167 19.1974C153.402 18.9986 153.52 18.7344 153.52 18.4048C153.52 18.1634 153.462 17.9503 153.346 17.7656C153.229 17.581 153.063 17.4361 152.847 17.331C152.634 17.2259 152.38 17.1733 152.084 17.1733H150.537V19.4915ZM150.537 15.9247H151.905C152.158 15.9247 152.382 15.8807 152.578 15.7926C152.777 15.7017 152.934 15.5739 153.047 15.4091C153.164 15.2443 153.222 15.0469 153.222 14.8168C153.222 14.5014 153.11 14.2472 152.885 14.054C152.664 13.8608 152.348 13.7642 151.939 13.7642H150.537V15.9247ZM156.626 21V12.2727H162.506V13.794H158.471V15.8736H162.204V17.3949H158.471V19.4787H162.523V21H156.626ZM163.973 21V12.2727H167.417C168.076 12.2727 168.638 12.3906 169.104 12.6264C169.573 12.8594 169.929 13.1903 170.174 13.6193C170.421 14.0455 170.544 14.5469 170.544 15.1236C170.544 15.7031 170.419 16.2017 170.169 16.6193C169.919 17.0341 169.557 17.3523 169.083 17.5739C168.611 17.7955 168.04 17.9062 167.37 17.9062H165.064V16.4233H167.071C167.424 16.4233 167.716 16.375 167.949 16.2784C168.182 16.1818 168.355 16.0369 168.469 15.8438C168.586 15.6506 168.644 15.4105 168.644 15.1236C168.644 14.8338 168.586 14.5895 168.469 14.3906C168.355 14.1918 168.181 14.0412 167.945 13.9389C167.712 13.8338 167.418 13.7812 167.063 13.7812H165.819V21H163.973ZM168.686 17.0284L170.855 21H168.819L166.696 17.0284H168.686ZM182.646 16.6364C182.646 17.5881 182.465 18.3977 182.104 19.0653C181.746 19.733 181.258 20.2429 180.638 20.5952C180.022 20.9446 179.329 21.1193 178.559 21.1193C177.783 21.1193 177.087 20.9432 176.471 20.5909C175.854 20.2386 175.367 19.7287 175.009 19.0611C174.651 18.3935 174.472 17.5852 174.472 16.6364C174.472 15.6847 174.651 14.875 175.009 14.2074C175.367 13.5398 175.854 13.0312 176.471 12.6818C177.087 12.3295 177.783 12.1534 178.559 12.1534C179.329 12.1534 180.022 12.3295 180.638 12.6818C181.258 13.0312 181.746 13.5398 182.104 14.2074C182.465 14.875 182.646 15.6847 182.646 16.6364ZM180.775 16.6364C180.775 16.0199 180.683 15.5 180.498 15.0767C180.316 14.6534 180.059 14.3324 179.727 14.1136C179.394 13.8949 179.005 13.7855 178.559 13.7855C178.113 13.7855 177.724 13.8949 177.391 14.1136C177.059 14.3324 176.8 14.6534 176.616 15.0767C176.434 15.5 176.343 16.0199 176.343 16.6364C176.343 17.2528 176.434 17.7727 176.616 18.196C176.8 18.6193 177.059 18.9403 177.391 19.1591C177.724 19.3778 178.113 19.4872 178.559 19.4872C179.005 19.4872 179.394 19.3778 179.727 19.1591C180.059 18.9403 180.316 18.6193 180.498 18.196C180.683 17.7727 180.775 17.2528 180.775 16.6364ZM184.012 21V12.2727H189.791V13.794H185.858V15.8736H189.407V17.3949H185.858V21H184.012ZM118.459 30.3281H116.592C116.558 30.0866 116.489 29.8722 116.384 29.6847C116.278 29.4943 116.143 29.3324 115.979 29.1989C115.814 29.0653 115.624 28.9631 115.408 28.892C115.195 28.821 114.963 28.7855 114.713 28.7855C114.261 28.7855 113.868 28.8977 113.533 29.1222C113.197 29.3437 112.938 29.6676 112.753 30.0938C112.568 30.517 112.476 31.0312 112.476 31.6364C112.476 32.2585 112.568 32.7812 112.753 33.2045C112.94 33.6278 113.202 33.9474 113.537 34.1634C113.872 34.3793 114.26 34.4872 114.7 34.4872C114.947 34.4872 115.176 34.4545 115.386 34.3892C115.599 34.3239 115.788 34.2287 115.953 34.1037C116.118 33.9759 116.254 33.821 116.362 33.6392C116.473 33.4574 116.55 33.25 116.592 33.017L118.459 33.0256C118.411 33.4261 118.29 33.8125 118.097 34.1847C117.906 34.554 117.649 34.8849 117.325 35.1776C117.004 35.4673 116.621 35.6974 116.175 35.8679C115.732 36.0355 115.23 36.1193 114.67 36.1193C113.892 36.1193 113.196 35.9432 112.582 35.5909C111.972 35.2386 111.489 34.7287 111.134 34.0611C110.781 33.3935 110.605 32.5852 110.605 31.6364C110.605 30.6847 110.784 29.875 111.142 29.2074C111.5 28.5398 111.986 28.0312 112.599 27.6818C113.213 27.3295 113.903 27.1534 114.67 27.1534C115.176 27.1534 115.645 27.2244 116.077 27.3665C116.511 27.5085 116.896 27.7159 117.232 27.9886C117.567 28.2585 117.839 28.5895 118.05 28.9815C118.263 29.3736 118.399 29.8224 118.459 30.3281ZM127.802 31.6364C127.802 32.5881 127.621 33.3977 127.261 34.0653C126.903 34.733 126.414 35.2429 125.795 35.5952C125.178 35.9446 124.485 36.1193 123.715 36.1193C122.94 36.1193 122.244 35.9432 121.627 35.5909C121.011 35.2386 120.523 34.7287 120.165 34.0611C119.808 33.3935 119.629 32.5852 119.629 31.6364C119.629 30.6847 119.808 29.875 120.165 29.2074C120.523 28.5398 121.011 28.0312 121.627 27.6818C122.244 27.3295 122.94 27.1534 123.715 27.1534C124.485 27.1534 125.178 27.3295 125.795 27.6818C126.414 28.0312 126.903 28.5398 127.261 29.2074C127.621 29.875 127.802 30.6847 127.802 31.6364ZM125.931 31.6364C125.931 31.0199 125.839 30.5 125.654 30.0767C125.472 29.6534 125.215 29.3324 124.883 29.1136C124.55 28.8949 124.161 28.7855 123.715 28.7855C123.269 28.7855 122.88 28.8949 122.548 29.1136C122.215 29.3324 121.957 29.6534 121.772 30.0767C121.59 30.5 121.499 31.0199 121.499 31.6364C121.499 32.2528 121.59 32.7727 121.772 33.196C121.957 33.6193 122.215 33.9403 122.548 34.1591C122.88 34.3778 123.269 34.4872 123.715 34.4872C124.161 34.4872 124.55 34.3778 124.883 34.1591C125.215 33.9403 125.472 33.6193 125.654 33.196C125.839 32.7727 125.931 32.2528 125.931 31.6364ZM129.169 27.2727H131.444L133.848 33.1364H133.95L136.353 27.2727H138.629V36H136.839V30.3196H136.767L134.508 35.9574H133.289L131.031 30.2983H130.958V36H129.169V27.2727ZM140.149 27.2727H142.425L144.828 33.1364H144.93L147.334 27.2727H149.609V36H147.82V30.3196H147.747L145.489 35.9574H144.27L142.011 30.2983H141.939V36H140.149V27.2727ZM151.13 36V27.2727H157.01V28.794H152.975V30.8736H156.708V32.3949H152.975V34.4787H157.027V36H151.13ZM158.477 36V27.2727H161.92C162.58 27.2727 163.142 27.3906 163.608 27.6264C164.077 27.8594 164.433 28.1903 164.678 28.6193C164.925 29.0455 165.048 29.5469 165.048 30.1236C165.048 30.7031 164.923 31.2017 164.673 31.6193C164.423 32.0341 164.061 32.3523 163.587 32.5739C163.115 32.7955 162.544 32.9062 161.874 32.9062H159.568V31.4233H161.575C161.928 31.4233 162.22 31.375 162.453 31.2784C162.686 31.1818 162.859 31.0369 162.973 30.8438C163.089 30.6506 163.148 30.4105 163.148 30.1236C163.148 29.8338 163.089 29.5895 162.973 29.3906C162.859 29.1918 162.685 29.0412 162.449 28.9389C162.216 28.8338 161.922 28.7812 161.567 28.7812H160.322V36H158.477ZM163.19 32.0284L165.359 36H163.322L161.2 32.0284H163.19ZM174.053 30.3281H172.186C172.152 30.0866 172.082 29.8722 171.977 29.6847C171.872 29.4943 171.737 29.3324 171.572 29.1989C171.408 29.0653 171.217 28.9631 171.001 28.892C170.788 28.821 170.557 28.7855 170.307 28.7855C169.855 28.7855 169.462 28.8977 169.126 29.1222C168.791 29.3437 168.531 29.6676 168.347 30.0938C168.162 30.517 168.07 31.0312 168.07 31.6364C168.07 32.2585 168.162 32.7812 168.347 33.2045C168.534 33.6278 168.795 33.9474 169.131 34.1634C169.466 34.3793 169.854 34.4872 170.294 34.4872C170.541 34.4872 170.77 34.4545 170.98 34.3892C171.193 34.3239 171.382 34.2287 171.547 34.1037C171.712 33.9759 171.848 33.821 171.956 33.6392C172.067 33.4574 172.143 33.25 172.186 33.017L174.053 33.0256C174.004 33.4261 173.884 33.8125 173.69 34.1847C173.5 34.554 173.243 34.8849 172.919 35.1776C172.598 35.4673 172.214 35.6974 171.768 35.8679C171.325 36.0355 170.824 36.1193 170.264 36.1193C169.486 36.1193 168.79 35.9432 168.176 35.5909C167.565 35.2386 167.082 34.7287 166.727 34.0611C166.375 33.3935 166.199 32.5852 166.199 31.6364C166.199 30.6847 166.378 29.875 166.736 29.2074C167.094 28.5398 167.58 28.0312 168.193 27.6818C168.807 27.3295 169.497 27.1534 170.264 27.1534C170.77 27.1534 171.239 27.2244 171.67 27.3665C172.105 27.5085 172.49 27.7159 172.825 27.9886C173.161 28.2585 173.433 28.5895 173.643 28.9815C173.857 29.3736 173.993 29.8224 174.053 30.3281ZM175.376 36V27.2727H181.256V28.794H177.221V30.8736H180.954V32.3949H177.221V34.4787H181.273V36H175.376Z" fill="url(#paint0_linear_7_49)"/>
<defs>
<linearGradient id="paint0_linear_7_49" x1="191" y1="24" x2="110" y2="24" gradientUnits="userSpaceOnUse">
<stop stop-color="#685EFF"/>
<stop offset="1" stop-color="#A33DFF"/>
</linearGradient>
</defs>
</svg>
