<svg width="204" height="49" viewBox="0 0 204 49" fill="none" xmlns="http://www.w3.org/2000/svg">
<rect x="0.5" y="0.5" width="203" height="48" stroke="white"/>
<path d="M20.8636 12.7273L25.6364 29.1364H25.8182L30.5909 12.7273H37.7273L30.0455 36H21.4091L13.7273 12.7273H20.8636ZM42.2017 36H35.3835L43.0653 12.7273H51.7017L59.3835 36H52.5653L47.4744 19.1364H47.2926L42.2017 36ZM40.929 26.8182H53.7472V31.5455H40.929V26.8182ZM73.2642 20C73.2036 19.2424 72.9195 18.6515 72.4119 18.2273C71.9119 17.803 71.1506 17.5909 70.1278 17.5909C69.4763 17.5909 68.9422 17.6705 68.5256 17.8295C68.1165 17.9811 67.8134 18.1894 67.6165 18.4545C67.4195 18.7197 67.3172 19.0227 67.3097 19.3636C67.2945 19.6439 67.3438 19.8977 67.4574 20.125C67.5786 20.3447 67.768 20.5455 68.0256 20.7273C68.2831 20.9015 68.6127 21.0606 69.0142 21.2045C69.4157 21.3485 69.893 21.4773 70.446 21.5909L72.3551 22C73.643 22.2727 74.7453 22.6326 75.6619 23.0795C76.5786 23.5265 77.3286 24.053 77.9119 24.6591C78.4953 25.2576 78.9233 25.9318 79.196 26.6818C79.4763 27.4318 79.6203 28.25 79.6278 29.1364C79.6203 30.6667 79.2377 31.9621 78.4801 33.0227C77.7225 34.0833 76.6392 34.8902 75.2301 35.4432C73.8286 35.9962 72.143 36.2727 70.1733 36.2727C68.1506 36.2727 66.3854 35.9735 64.8778 35.375C63.3778 34.7765 62.2112 33.8561 61.3778 32.6136C60.5521 31.3636 60.1354 29.7652 60.1278 27.8182H66.1278C66.1657 28.5303 66.3438 29.1288 66.6619 29.6136C66.9801 30.0985 67.4271 30.4659 68.0028 30.7159C68.5862 30.9659 69.2794 31.0909 70.0824 31.0909C70.7566 31.0909 71.321 31.0076 71.7756 30.8409C72.2301 30.6742 72.5748 30.4432 72.8097 30.1477C73.0445 29.8523 73.1657 29.5152 73.1733 29.1364C73.1657 28.7803 73.0483 28.4697 72.821 28.2045C72.6013 27.9318 72.2377 27.6894 71.7301 27.4773C71.2225 27.2576 70.5369 27.053 69.6733 26.8636L67.3551 26.3636C65.2945 25.9167 63.6695 25.1705 62.4801 24.125C61.2983 23.072 60.7112 21.6364 60.7188 19.8182C60.7112 18.3409 61.1051 17.0492 61.9006 15.9432C62.7036 14.8295 63.8134 13.9621 65.2301 13.3409C66.6544 12.7197 68.2869 12.4091 70.1278 12.4091C72.0066 12.4091 73.6316 12.7235 75.0028 13.3523C76.3741 13.9811 77.4309 14.8674 78.1733 16.0114C78.9233 17.1477 79.3021 18.4773 79.3097 20H73.2642ZM82.0312 36V12.7273H92.0767C93.804 12.7273 95.3153 13.0682 96.6108 13.75C97.9063 14.4318 98.9138 15.3902 99.6335 16.625C100.353 17.8598 100.713 19.303 100.713 20.9545C100.713 22.6212 100.342 24.0644 99.5994 25.2841C98.8646 26.5038 97.8305 27.4432 96.4972 28.1023C95.1714 28.7614 93.6222 29.0909 91.8494 29.0909H85.8494V24.1818H90.5767C91.3191 24.1818 91.9517 24.053 92.4744 23.7955C93.0047 23.5303 93.41 23.1553 93.6903 22.6705C93.9782 22.1856 94.1222 21.6136 94.1222 20.9545C94.1222 20.2879 93.9782 19.7197 93.6903 19.25C93.41 18.7727 93.0047 18.4091 92.4744 18.1591C91.9517 17.9015 91.3191 17.7727 90.5767 17.7727H88.3494V36H82.0312Z" fill="white"/>
<path d="M118.459 15.3281H116.592C116.558 15.0866 116.489 14.8722 116.384 14.6847C116.278 14.4943 116.143 14.3324 115.979 14.1989C115.814 14.0653 115.624 13.9631 115.408 13.892C115.195 13.821 114.963 13.7855 114.713 13.7855C114.261 13.7855 113.868 13.8977 113.533 14.1222C113.197 14.3437 112.938 14.6676 112.753 15.0938C112.568 15.517 112.476 16.0312 112.476 16.6364C112.476 17.2585 112.568 17.7812 112.753 18.2045C112.94 18.6278 113.202 18.9474 113.537 19.1634C113.872 19.3793 114.26 19.4872 114.7 19.4872C114.947 19.4872 115.176 19.4545 115.386 19.3892C115.599 19.3239 115.788 19.2287 115.953 19.1037C116.118 18.9759 116.254 18.821 116.362 18.6392C116.473 18.4574 116.55 18.25 116.592 18.017L118.459 18.0256C118.411 18.4261 118.29 18.8125 118.097 19.1847C117.906 19.554 117.649 19.8849 117.325 20.1776C117.004 20.4673 116.621 20.6974 116.175 20.8679C115.732 21.0355 115.23 21.1193 114.67 21.1193C113.892 21.1193 113.196 20.9432 112.582 20.5909C111.972 20.2386 111.489 19.7287 111.134 19.0611C110.781 18.3935 110.605 17.5852 110.605 16.6364C110.605 15.6847 110.784 14.875 111.142 14.2074C111.5 13.5398 111.986 13.0312 112.599 12.6818C113.213 12.3295 113.903 12.1534 114.67 12.1534C115.176 12.1534 115.645 12.2244 116.077 12.3665C116.511 12.5085 116.896 12.7159 117.232 12.9886C117.567 13.2585 117.839 13.5895 118.05 13.9815C118.263 14.3736 118.399 14.8224 118.459 15.3281ZM119.782 21V12.2727H121.627V15.8736H125.373V12.2727H127.214V21H125.373V17.3949H121.627V21H119.782ZM130.239 21H128.262L131.275 12.2727H133.653L136.661 21H134.684L132.498 14.267H132.43L130.239 21ZM130.116 17.5696H134.786V19.0099H130.116V17.5696ZM137.712 12.2727H139.987L142.391 18.1364H142.493L144.896 12.2727H147.172V21H145.382V15.3196H145.31L143.051 20.9574H141.832L139.574 15.2983H139.501V21H137.712V12.2727ZM148.692 21V12.2727H152.186C152.828 12.2727 153.364 12.3679 153.793 12.5582C154.222 12.7486 154.544 13.0128 154.76 13.3509C154.976 13.6861 155.084 14.0724 155.084 14.5099C155.084 14.8509 155.016 15.1506 154.88 15.4091C154.743 15.6648 154.556 15.875 154.317 16.0398C154.081 16.2017 153.811 16.3168 153.507 16.3849V16.4702C153.84 16.4844 154.151 16.5781 154.441 16.7514C154.733 16.9247 154.971 17.1676 155.152 17.4801C155.334 17.7898 155.425 18.1591 155.425 18.5881C155.425 19.0511 155.31 19.4645 155.08 19.8281C154.853 20.1889 154.516 20.4744 154.07 20.6847C153.624 20.8949 153.074 21 152.421 21H148.692ZM150.537 19.4915H152.042C152.556 19.4915 152.931 19.3935 153.167 19.1974C153.402 18.9986 153.52 18.7344 153.52 18.4048C153.52 18.1634 153.462 17.9503 153.346 17.7656C153.229 17.581 153.063 17.4361 152.847 17.331C152.634 17.2259 152.38 17.1733 152.084 17.1733H150.537V19.4915ZM150.537 15.9247H151.905C152.158 15.9247 152.382 15.8807 152.578 15.7926C152.777 15.7017 152.934 15.5739 153.047 15.4091C153.164 15.2443 153.222 15.0469 153.222 14.8168C153.222 14.5014 153.11 14.2472 152.885 14.054C152.664 13.8608 152.348 13.7642 151.939 13.7642H150.537V15.9247ZM156.626 21V12.2727H162.506V13.794H158.471V15.8736H162.204V17.3949H158.471V19.4787H162.523V21H156.626ZM163.973 21V12.2727H167.417C168.076 12.2727 168.638 12.3906 169.104 12.6264C169.573 12.8594 169.929 13.1903 170.174 13.6193C170.421 14.0455 170.544 14.5469 170.544 15.1236C170.544 15.7031 170.419 16.2017 170.169 16.6193C169.919 17.0341 169.557 17.3523 169.083 17.5739C168.611 17.7955 168.04 17.9062 167.37 17.9062H165.064V16.4233H167.071C167.424 16.4233 167.716 16.375 167.949 16.2784C168.182 16.1818 168.355 16.0369 168.469 15.8438C168.586 15.6506 168.644 15.4105 168.644 15.1236C168.644 14.8338 168.586 14.5895 168.469 14.3906C168.355 14.1918 168.181 14.0412 167.945 13.9389C167.712 13.8338 167.418 13.7812 167.063 13.7812H165.819V21H163.973ZM168.686 17.0284L170.855 21H168.819L166.696 17.0284H168.686ZM182.646 16.6364C182.646 17.5881 182.465 18.3977 182.104 19.0653C181.746 19.733 181.258 20.2429 180.638 20.5952C180.022 20.9446 179.329 21.1193 178.559 21.1193C177.783 21.1193 177.087 20.9432 176.471 20.5909C175.854 20.2386 175.367 19.7287 175.009 19.0611C174.651 18.3935 174.472 17.5852 174.472 16.6364C174.472 15.6847 174.651 14.875 175.009 14.2074C175.367 13.5398 175.854 13.0312 176.471 12.6818C177.087 12.3295 177.783 12.1534 178.559 12.1534C179.329 12.1534 180.022 12.3295 180.638 12.6818C181.258 13.0312 181.746 13.5398 182.104 14.2074C182.465 14.875 182.646 15.6847 182.646 16.6364ZM180.775 16.6364C180.775 16.0199 180.683 15.5 180.498 15.0767C180.316 14.6534 180.059 14.3324 179.727 14.1136C179.394 13.8949 179.005 13.7855 178.559 13.7855C178.113 13.7855 177.724 13.8949 177.391 14.1136C177.059 14.3324 176.8 14.6534 176.616 15.0767C176.434 15.5 176.343 16.0199 176.343 16.6364C176.343 17.2528 176.434 17.7727 176.616 18.196C176.8 18.6193 177.059 18.9403 177.391 19.1591C177.724 19.3778 178.113 19.4872 178.559 19.4872C179.005 19.4872 179.394 19.3778 179.727 19.1591C180.059 18.9403 180.316 18.6193 180.498 18.196C180.683 17.7727 180.775 17.2528 180.775 16.6364ZM184.012 21V12.2727H189.791V13.794H185.858V15.8736H189.407V17.3949H185.858V21H184.012ZM118.459 30.3281H116.592C116.558 30.0866 116.489 29.8722 116.384 29.6847C116.278 29.4943 116.143 29.3324 115.979 29.1989C115.814 29.0653 115.624 28.9631 115.408 28.892C115.195 28.821 114.963 28.7855 114.713 28.7855C114.261 28.7855 113.868 28.8977 113.533 29.1222C113.197 29.3437 112.938 29.6676 112.753 30.0938C112.568 30.517 112.476 31.0312 112.476 31.6364C112.476 32.2585 112.568 32.7812 112.753 33.2045C112.94 33.6278 113.202 33.9474 113.537 34.1634C113.872 34.3793 114.26 34.4872 114.7 34.4872C114.947 34.4872 115.176 34.4545 115.386 34.3892C115.599 34.3239 115.788 34.2287 115.953 34.1037C116.118 33.9759 116.254 33.821 116.362 33.6392C116.473 33.4574 116.55 33.25 116.592 33.017L118.459 33.0256C118.411 33.4261 118.29 33.8125 118.097 34.1847C117.906 34.554 117.649 34.8849 117.325 35.1776C117.004 35.4673 116.621 35.6974 116.175 35.8679C115.732 36.0355 115.23 36.1193 114.67 36.1193C113.892 36.1193 113.196 35.9432 112.582 35.5909C111.972 35.2386 111.489 34.7287 111.134 34.0611C110.781 33.3935 110.605 32.5852 110.605 31.6364C110.605 30.6847 110.784 29.875 111.142 29.2074C111.5 28.5398 111.986 28.0312 112.599 27.6818C113.213 27.3295 113.903 27.1534 114.67 27.1534C115.176 27.1534 115.645 27.2244 116.077 27.3665C116.511 27.5085 116.896 27.7159 117.232 27.9886C117.567 28.2585 117.839 28.5895 118.05 28.9815C118.263 29.3736 118.399 29.8224 118.459 30.3281ZM127.802 31.6364C127.802 32.5881 127.621 33.3977 127.261 34.0653C126.903 34.733 126.414 35.2429 125.795 35.5952C125.178 35.9446 124.485 36.1193 123.715 36.1193C122.94 36.1193 122.244 35.9432 121.627 35.5909C121.011 35.2386 120.523 34.7287 120.165 34.0611C119.808 33.3935 119.629 32.5852 119.629 31.6364C119.629 30.6847 119.808 29.875 120.165 29.2074C120.523 28.5398 121.011 28.0312 121.627 27.6818C122.244 27.3295 122.94 27.1534 123.715 27.1534C124.485 27.1534 125.178 27.3295 125.795 27.6818C126.414 28.0312 126.903 28.5398 127.261 29.2074C127.621 29.875 127.802 30.6847 127.802 31.6364ZM125.931 31.6364C125.931 31.0199 125.839 30.5 125.654 30.0767C125.472 29.6534 125.215 29.3324 124.883 29.1136C124.55 28.8949 124.161 28.7855 123.715 28.7855C123.269 28.7855 122.88 28.8949 122.548 29.1136C122.215 29.3324 121.957 29.6534 121.772 30.0767C121.59 30.5 121.499 31.0199 121.499 31.6364C121.499 32.2528 121.59 32.7727 121.772 33.196C121.957 33.6193 122.215 33.9403 122.548 34.1591C122.88 34.3778 123.269 34.4872 123.715 34.4872C124.161 34.4872 124.55 34.3778 124.883 34.1591C125.215 33.9403 125.472 33.6193 125.654 33.196C125.839 32.7727 125.931 32.2528 125.931 31.6364ZM129.169 27.2727H131.444L133.848 33.1364H133.95L136.353 27.2727H138.629V36H136.839V30.3196H136.767L134.508 35.9574H133.289L131.031 30.2983H130.958V36H129.169V27.2727ZM140.149 27.2727H142.425L144.828 33.1364H144.93L147.334 27.2727H149.609V36H147.82V30.3196H147.747L145.489 35.9574H144.27L142.011 30.2983H141.939V36H140.149V27.2727ZM151.13 36V27.2727H157.01V28.794H152.975V30.8736H156.708V32.3949H152.975V34.4787H157.027V36H151.13ZM158.477 36V27.2727H161.92C162.58 27.2727 163.142 27.3906 163.608 27.6264C164.077 27.8594 164.433 28.1903 164.678 28.6193C164.925 29.0455 165.048 29.5469 165.048 30.1236C165.048 30.7031 164.923 31.2017 164.673 31.6193C164.423 32.0341 164.061 32.3523 163.587 32.5739C163.115 32.7955 162.544 32.9062 161.874 32.9062H159.568V31.4233H161.575C161.928 31.4233 162.22 31.375 162.453 31.2784C162.686 31.1818 162.859 31.0369 162.973 30.8438C163.089 30.6506 163.148 30.4105 163.148 30.1236C163.148 29.8338 163.089 29.5895 162.973 29.3906C162.859 29.1918 162.685 29.0412 162.449 28.9389C162.216 28.8338 161.922 28.7812 161.567 28.7812H160.322V36H158.477ZM163.19 32.0284L165.359 36H163.322L161.2 32.0284H163.19ZM174.053 30.3281H172.186C172.152 30.0866 172.082 29.8722 171.977 29.6847C171.872 29.4943 171.737 29.3324 171.572 29.1989C171.408 29.0653 171.217 28.9631 171.001 28.892C170.788 28.821 170.557 28.7855 170.307 28.7855C169.855 28.7855 169.462 28.8977 169.126 29.1222C168.791 29.3437 168.531 29.6676 168.347 30.0938C168.162 30.517 168.07 31.0312 168.07 31.6364C168.07 32.2585 168.162 32.7812 168.347 33.2045C168.534 33.6278 168.795 33.9474 169.131 34.1634C169.466 34.3793 169.854 34.4872 170.294 34.4872C170.541 34.4872 170.77 34.4545 170.98 34.3892C171.193 34.3239 171.382 34.2287 171.547 34.1037C171.712 33.9759 171.848 33.821 171.956 33.6392C172.067 33.4574 172.143 33.25 172.186 33.017L174.053 33.0256C174.004 33.4261 173.884 33.8125 173.69 34.1847C173.5 34.554 173.243 34.8849 172.919 35.1776C172.598 35.4673 172.214 35.6974 171.768 35.8679C171.325 36.0355 170.824 36.1193 170.264 36.1193C169.486 36.1193 168.79 35.9432 168.176 35.5909C167.565 35.2386 167.082 34.7287 166.727 34.0611C166.375 33.3935 166.199 32.5852 166.199 31.6364C166.199 30.6847 166.378 29.875 166.736 29.2074C167.094 28.5398 167.58 28.0312 168.193 27.6818C168.807 27.3295 169.497 27.1534 170.264 27.1534C170.77 27.1534 171.239 27.2244 171.67 27.3665C172.105 27.5085 172.49 27.7159 172.825 27.9886C173.161 28.2585 173.433 28.5895 173.643 28.9815C173.857 29.3736 173.993 29.8224 174.053 30.3281ZM175.376 36V27.2727H181.256V28.794H177.221V30.8736H180.954V32.3949H177.221V34.4787H181.273V36H175.376Z" fill="white"/>
</svg>
