<svg width="649" height="377" viewBox="0 0 649 377" fill="none" xmlns="http://www.w3.org/2000/svg">
<path d="M56.659 107.156C47.849 107.252 44.274 109.325 40 116.089L43.702 264.136C48.989 271.681 55.625 273.157 70.233 273.708L127.614 259.669L123.912 156.292L56.659 107.156Z" fill="#9A33CC" stroke="black"/>
<path d="M218.314 128.214C218.314 128.214 154.763 145.444 142.423 146.72C130.083 147.997 83.1911 107.156 75.1691 100.137C67.1481 93.117 65.2971 84.183 75.1691 80.993C85.0421 77.802 199.187 51 199.187 51C210.422 50.947 218.314 56.1051 218.314 70.1441V128.214Z" fill="#9A33CC" stroke="black"/>
<path d="M228.803 126.3V67.591C231.904 60.011 235.386 58.654 244.228 60.572L304.077 103.965C308.152 107.049 307.183 107.709 304.077 108.432L228.803 126.3Z" fill="#9A33CC" stroke="black"/>
<path d="M139.955 334.331L139.338 273.07L202.272 256.479C210.054 254.111 213.625 254.277 218.314 257.755C218.314 257.755 272.61 293.49 276.929 302.424C281.248 311.358 280.014 319.016 271.993 322.844C263.972 326.673 162.784 349.646 162.784 349.646C147.227 353.22 141.961 350.248 139.955 334.331Z" fill="#9A33CC" stroke="black"/>
<path d="M129.465 334.331C129.465 322.844 127.614 274.346 127.614 274.346C127.614 274.346 65.2969 289.661 56.0419 292.214C46.7869 294.767 46.1699 298.595 52.3399 303.7C58.5099 308.805 99.8489 339.436 110.338 345.179C120.827 350.922 129.465 345.817 129.465 334.331Z" fill="#9A33CC" stroke="black"/>
<path d="M300.375 125.023C291.737 125.023 230.037 140.339 230.037 140.339L232.505 248.821C232.529 251.032 233.247 252.408 236.207 255.202C236.207 255.202 291.12 297.957 302.226 302.424C313.333 306.891 318.269 302.424 318.269 295.405C318.269 288.385 315.801 146.082 314.567 137.786C313.333 129.49 309.013 125.023 300.375 125.023Z" fill="#9A33CC" stroke="black"/>
<path d="M151.061 159.482C163.401 155.654 218.314 142.891 218.314 142.891V205.428C217.613 226.165 212.806 233.779 199.804 240.525L136.253 255.202V179.903C136.253 169.693 138.721 163.311 151.061 159.482Z" fill="#9A33CC" stroke="black"/>
<path d="M334.421 80.8H345.077L351.989 132.928H352.181L359.093 80.8H368.789L358.613 148H344.597L334.421 80.8ZM373.861 80.8H384.421V148H373.861V80.8ZM392.33 80.8H407.978C413.418 80.8 417.386 82.0801 419.882 84.6401C422.378 87.1361 423.626 91.0081 423.626 96.2561V100.384C423.626 107.36 421.322 111.776 416.714 113.632V113.824C419.274 114.592 421.066 116.16 422.09 118.528C423.178 120.896 423.722 124.064 423.722 128.032V139.84C423.722 141.76 423.786 143.328 423.914 144.544C424.042 145.696 424.362 146.848 424.874 148H414.122C413.738 146.912 413.482 145.888 413.354 144.928C413.226 143.968 413.162 142.24 413.162 139.744V127.456C413.162 124.384 412.65 122.24 411.626 121.024C410.666 119.808 408.97 119.2 406.538 119.2H402.89V148H392.33V80.8ZM406.73 109.6C408.842 109.6 410.41 109.056 411.434 107.968C412.522 106.88 413.066 105.056 413.066 102.496V97.3121C413.066 94.8801 412.618 93.1201 411.722 92.0321C410.89 90.9441 409.546 90.4001 407.69 90.4001H402.89V109.6H406.73ZM439.117 90.4001H428.077V80.8H460.717V90.4001H449.677V148H439.117V90.4001ZM481.19 148.96C476.07 148.96 472.166 147.52 469.478 144.64C466.79 141.696 465.446 137.504 465.446 132.064V80.8H476.006V132.832C476.006 135.136 476.454 136.8 477.35 137.824C478.31 138.848 479.654 139.36 481.382 139.36C483.11 139.36 484.422 138.848 485.318 137.824C486.278 136.8 486.758 135.136 486.758 132.832V80.8H496.934V132.064C496.934 137.504 495.59 141.696 492.902 144.64C490.214 147.52 486.31 148.96 481.19 148.96ZM512.427 80.8H526.731L537.675 148H527.115L525.195 134.656V134.848H513.195L511.275 148H501.483L512.427 80.8ZM523.947 125.728L519.243 92.5121H519.051L514.443 125.728H523.947ZM542.798 80.8H553.358V138.4H570.734V148H542.798V80.8ZM345.365 162.8H359.669L370.613 230H360.053L358.133 216.656V216.848H346.133L344.213 230H334.421L345.365 162.8ZM356.885 207.728L352.181 174.512H351.989L347.381 207.728H356.885ZM389.183 230.96C384.063 230.96 380.191 229.52 377.567 226.64C374.943 223.696 373.631 219.504 373.631 214.064V210.224H383.615V214.832C383.615 219.184 385.439 221.36 389.087 221.36C390.879 221.36 392.223 220.848 393.119 219.824C394.079 218.736 394.559 217.008 394.559 214.64C394.559 211.824 393.919 209.36 392.639 207.248C391.359 205.072 388.991 202.48 385.535 199.472C381.183 195.632 378.143 192.176 376.415 189.104C374.687 185.968 373.823 182.448 373.823 178.544C373.823 173.232 375.167 169.136 377.855 166.256C380.543 163.312 384.447 161.84 389.567 161.84C394.623 161.84 398.431 163.312 400.991 166.256C403.615 169.136 404.927 173.296 404.927 178.736V181.52H394.943V178.064C394.943 175.76 394.495 174.096 393.599 173.072C392.703 171.984 391.391 171.44 389.663 171.44C386.143 171.44 384.383 173.584 384.383 177.872C384.383 180.304 385.023 182.576 386.303 184.688C387.647 186.8 390.047 189.36 393.503 192.368C397.919 196.208 400.959 199.696 402.623 202.832C404.287 205.968 405.119 209.648 405.119 213.872C405.119 219.376 403.743 223.6 400.991 226.544C398.303 229.488 394.367 230.96 389.183 230.96ZM424.901 230.96C419.781 230.96 415.909 229.52 413.285 226.64C410.661 223.696 409.349 219.504 409.349 214.064V210.224H419.333V214.832C419.333 219.184 421.157 221.36 424.805 221.36C426.597 221.36 427.941 220.848 428.837 219.824C429.797 218.736 430.277 217.008 430.277 214.64C430.277 211.824 429.637 209.36 428.357 207.248C427.077 205.072 424.709 202.48 421.253 199.472C416.901 195.632 413.861 192.176 412.133 189.104C410.405 185.968 409.541 182.448 409.541 178.544C409.541 173.232 410.885 169.136 413.573 166.256C416.261 163.312 420.165 161.84 425.285 161.84C430.341 161.84 434.149 163.312 436.709 166.256C439.333 169.136 440.645 173.296 440.645 178.736V181.52H430.661V178.064C430.661 175.76 430.213 174.096 429.317 173.072C428.421 171.984 427.109 171.44 425.381 171.44C421.861 171.44 420.101 173.584 420.101 177.872C420.101 180.304 420.741 182.576 422.021 184.688C423.365 186.8 425.765 189.36 429.221 192.368C433.637 196.208 436.677 199.696 438.341 202.832C440.005 205.968 440.837 209.648 440.837 213.872C440.837 219.376 439.461 223.6 436.709 226.544C434.021 229.488 430.085 230.96 424.901 230.96ZM446.892 162.8H475.692V172.4H457.452V190.16H471.948V199.76H457.452V220.4H475.692V230H446.892V162.8ZM490.023 172.4H478.983V162.8H511.623V172.4H500.583V230H490.023V172.4ZM530.464 230.96C525.344 230.96 521.472 229.52 518.848 226.64C516.224 223.696 514.912 219.504 514.912 214.064V210.224H524.896V214.832C524.896 219.184 526.72 221.36 530.368 221.36C532.16 221.36 533.504 220.848 534.4 219.824C535.36 218.736 535.84 217.008 535.84 214.64C535.84 211.824 535.2 209.36 533.92 207.248C532.64 205.072 530.272 202.48 526.816 199.472C522.464 195.632 519.424 192.176 517.696 189.104C515.968 185.968 515.104 182.448 515.104 178.544C515.104 173.232 516.448 169.136 519.136 166.256C521.824 163.312 525.728 161.84 530.848 161.84C535.904 161.84 539.712 163.312 542.272 166.256C544.896 169.136 546.208 173.296 546.208 178.736V181.52H536.224V178.064C536.224 175.76 535.776 174.096 534.88 173.072C533.984 171.984 532.672 171.44 530.944 171.44C527.424 171.44 525.664 173.584 525.664 177.872C525.664 180.304 526.304 182.576 527.584 184.688C528.928 186.8 531.328 189.36 534.784 192.368C539.2 196.208 542.24 199.696 543.904 202.832C545.568 205.968 546.4 209.648 546.4 213.872C546.4 219.376 545.024 223.6 542.272 226.544C539.584 229.488 535.648 230.96 530.464 230.96ZM352.085 312.96C347.029 312.96 343.157 311.52 340.469 308.64C337.845 305.76 336.533 301.696 336.533 296.448V260.352C336.533 255.104 337.845 251.04 340.469 248.16C343.157 245.28 347.029 243.84 352.085 243.84C357.141 243.84 360.981 245.28 363.605 248.16C366.293 251.04 367.637 255.104 367.637 260.352V267.456H357.653V259.68C357.653 255.52 355.893 253.44 352.373 253.44C348.853 253.44 347.093 255.52 347.093 259.68V297.216C347.093 301.312 348.853 303.36 352.373 303.36C355.893 303.36 357.653 301.312 357.653 297.216V286.944H367.637V296.448C367.637 301.696 366.293 305.76 363.605 308.64C360.981 311.52 357.141 312.96 352.085 312.96ZM373.955 244.8H384.515V272.16H395.843V244.8H406.403V312H395.843V281.76H384.515V312H373.955V244.8ZM422.427 244.8H436.731L447.675 312H437.115L435.195 298.656V298.848H423.195L421.275 312H411.483L422.427 244.8ZM433.947 289.728L429.243 256.512H429.051L424.443 289.728H433.947ZM452.798 244.8H467.87L474.59 292.896H474.782L481.502 244.8H496.574V312H486.59V261.12H486.398L478.718 312H469.886L462.206 261.12H462.014V312H452.798V244.8ZM504.455 244.8H520.391C525.831 244.8 529.799 246.08 532.295 248.64C534.791 251.136 536.039 255.008 536.039 260.256V262.944C536.039 266.4 535.463 269.216 534.311 271.392C533.223 273.568 531.527 275.136 529.223 276.096V276.288C534.471 278.08 537.095 282.752 537.095 290.304V296.064C537.095 301.248 535.719 305.216 532.967 307.968C530.279 310.656 526.311 312 521.063 312H504.455V244.8ZM519.143 272.16C521.255 272.16 522.823 271.616 523.847 270.528C524.935 269.44 525.479 267.616 525.479 265.056V261.312C525.479 258.88 525.031 257.12 524.135 256.032C523.303 254.944 521.959 254.4 520.103 254.4H515.015V272.16H519.143ZM521.063 302.4C522.919 302.4 524.295 301.92 525.191 300.96C526.087 299.936 526.535 298.208 526.535 295.776V289.92C526.535 286.848 525.991 284.736 524.903 283.584C523.879 282.368 522.151 281.76 519.719 281.76H515.015V302.4H521.063ZM543.267 244.8H572.067V254.4H553.827V272.16H568.323V281.76H553.827V302.4H572.067V312H543.267V244.8ZM578.142 244.8H593.79C599.23 244.8 603.198 246.08 605.694 248.64C608.19 251.136 609.438 255.008 609.438 260.256V264.384C609.438 271.36 607.134 275.776 602.526 277.632V277.824C605.086 278.592 606.878 280.16 607.902 282.528C608.99 284.896 609.534 288.064 609.534 292.032V303.84C609.534 305.76 609.598 307.328 609.726 308.544C609.854 309.696 610.174 310.848 610.686 312H599.934C599.55 310.912 599.294 309.888 599.166 308.928C599.038 307.968 598.974 306.24 598.974 303.744V291.456C598.974 288.384 598.462 286.24 597.438 285.024C596.478 283.808 594.782 283.2 592.35 283.2H588.702V312H578.142V244.8ZM592.542 273.6C594.654 273.6 596.222 273.056 597.246 271.968C598.334 270.88 598.878 269.056 598.878 266.496V261.312C598.878 258.88 598.43 257.12 597.534 256.032C596.702 254.944 595.358 254.4 593.502 254.4H588.702V273.6H592.542Z" fill="#9A33CC"/>
</svg>